# xmcd CD database file
#
# Track frame offsets:
#	150
#	28195
#	48748
#	80477
#	83217
#	112145
#	147507
#
# Disc length: 2439 seconds
#
# Revision: 0
# Processed by: cddbd v1.5.1PL0 Copyright (c) Steve Scherf et al.
# Submitted via: CDex 1.51
#
DISCID=63098507
DTITLE=Libre - Con Salsa ... Con Ritmo (Volume 1)
DYEAR=1900
DGENRE=Salsa
TTITLE0=Lamento Borincano
TTITLE1=Risque
TTITLE2=Saoco
TTITLE3=Afterthought
TTITLE4=No Critiques
TTITLE5=Donna Lee - A Gozar Y Bailar
TTITLE6=Bamboleate
EXTD=
EXTT0=
EXTT1=
EXTT2=
EXTT3=
EXTT4=
EXTT5=
EXTT6=
PLAYORDER=
